<svg width="20" height="20" viewBox="0 0 42 42">
<path fill-rule="evenodd" clip-rule="evenodd" d="M4.66667 42H37.3333C39.9107 42 42 39.9107 42 37.3333V4.66667C42 2.08934 39.9107 0 37.3333 0H4.66667C2.08934 0 0 2.08934 0 4.66667V37.3333C0 39.9107 2.08934 42 4.66667 42ZM36.1667 36.1667H29.9341V25.5512C29.9341 22.6408 28.8282 21.0143 26.5246 21.0143C24.0185 21.0143 22.7092 22.7069 22.7092 25.5512V36.1667H16.7028V15.9444H22.7092V18.6684C22.7092 18.6684 24.5152 15.3266 28.8065 15.3266C33.0958 15.3266 36.1667 17.9459 36.1667 23.3632V36.1667ZM9.53712 13.2965C7.4912 13.2965 5.83333 11.6256 5.83333 9.56492C5.83333 7.50421 7.4912 5.83333 9.53712 5.83333C11.583 5.83333 13.2399 7.50421 13.2399 9.56492C13.2399 11.6256 11.583 13.2965 9.53712 13.2965ZM6.43566 36.1667H12.6988V15.9444H6.43566V36.1667Z"/>
</svg>
